<?xml version="1.0" standalone="no"?>
<!DOCTYPE svg PUBLIC "-//W3C//DTD SVG 20010904//EN"
 "http://www.w3.org/TR/2001/REC-SVG-20010904/DTD/svg10.dtd">
<svg version="1.0" xmlns="http://www.w3.org/2000/svg"
 width="1024.000000pt" height="1024.000000pt" viewBox="0 0 1024.000000 1024.000000"
 preserveAspectRatio="xMidYMid meet">
<metadata>
Created by potrace 1.11, written by Peter Selinger 2001-2013
</metadata>
<g transform="translate(0.000000,1024.000000) scale(0.100000,-0.100000)"
fill="#000000" stroke="none">
<path d="M1503 10215 c-373 -79 -692 -252 -959 -519 -264 -265 -418 -543 -516
-931 l-23 -90 0 -3525 c0 -1939 3 -3545 7 -3570 33 -223 151 -520 284 -720
188 -283 431 -500 730 -652 219 -112 403 -166 669 -198 88 -11 6845 -7 6900 4
22 4 91 19 154 33 548 120 1012 475 1275 974 94 178 167 398 191 576 4 26 10
59 13 73 10 38 12 6816 2 6885 -5 33 -11 76 -13 95 -64 466 -350 937 -747
1231 -69 51 -102 73 -185 122 -116 68 -311 149 -450 186 -200 53 41 50 -3725
50 l-3495 0 -112 -24z"/>
</g>
</svg>
